<svg width="1600" height="900" viewBox="0 0 1600 900" fill="none" xmlns="http://www.w3.org/2000/svg">
  <g opacity="0.18" fill="#000000">
    <path d="M170 300C205 258 258 231 313 220C370 209 430 213 476 242C514 266 538 304 544 347C552 402 533 459 492 495C446 536 382 556 321 549C256 541 194 509 156 455C119 403 126 340 170 300Z"/>
    <path d="M465 550C493 528 532 520 567 526C606 533 641 554 657 590C674 628 667 675 640 706C612 738 569 754 528 749C492 744 456 723 440 689C423 653 431 584 465 550Z"/>
    <path d="M710 234C784 196 877 185 959 204C1033 221 1105 268 1144 333C1183 397 1187 479 1142 540C1098 599 1023 640 944 654C853 671 753 657 678 606C610 560 567 485 574 408C582 329 640 271 710 234Z"/>
    <path d="M1024 642C1054 617 1095 603 1134 609C1170 615 1207 638 1221 674C1235 709 1227 751 1201 780C1174 811 1132 827 1091 823C1053 819 1017 797 1001 762C985 725 991 674 1024 642Z"/>
    <path d="M1230 286C1274 249 1331 230 1388 234C1448 239 1510 268 1540 321C1572 377 1564 454 1524 504C1484 554 1416 581 1347 582C1282 582 1213 558 1175 507C1137 455 1132 370 1171 322C1188 301 1208 293 1230 286Z"/>
    <path d="M1280 620C1314 595 1359 582 1402 588C1448 594 1492 617 1511 656C1532 699 1526 751 1497 788C1467 825 1418 846 1369 842C1326 839 1284 817 1263 781C1242 746 1246 661 1280 620Z"/>
  </g>
</svg>
